<svg width="20" height="22" viewBox="0 0 20 22" fill="none" xmlns="http://www.w3.org/2000/svg">
<path d="M10.87 11.81C10.64 11.43 10.5 10.98 10.5 10.5C10.5 9.12 11.62 8 13 8H14C15.51 8 16 7 16 7C16 7 16.55 13 13 13C12.51 13 12.06 12.86 11.68 12.62C11.44 13.26 11.09 14.38 10.92 15.58C12.18 15.8 13.2 16.47 13.69 17.35C15.38 16.18 16.5 14.22 16.5 12H19.5C19.5 17.24 15.24 21.5 10 21.5C4.76 21.5 0.5 17.24 0.5 12C0.5 6.76 4.76 2.5 10 2.5V0L14 4L10 8V5.5C6.42 5.5 3.5 8.42 3.5 12C3.5 14.21 4.61 16.17 6.31 17.35C6.82 16.43 7.94 15.73 9.29 15.55C9.2 14.86 9.03 14.13 8.8 13.52C8.45 13.82 8 14 7.5 14C6.4 14 5.5 13.1 5.5 12V11.01C5.5 10.45 5.31 9.92 5 9.5C5 9.5 9.45 9.27 9.5 12C9.5 12.29 9.44 12.56 9.33 12.8C8.91 12.48 8.47 12.2 8 12C8.58 12.43 9.37 13.37 10 14.6C10.67 12.98 11.68 11.33 13 10C12.24 10.52 11.53 11.12 10.87 11.81Z" fill="#444545"/>
</svg>
